<svg xmlns="http://www.w3.org/2000/svg" viewBox="0 0 403.612 334.016">
  <defs>
    <linearGradient id="blade-left" gradientUnits="userSpaceOnUse"
      x1="500.0645" y1="515.4523" x2="625.9953" y2="655.3127">
      <stop offset="0" stop-color="#d5f55a"/>
      <stop offset=".469527" stop-color="#47d95d"/>
      <stop offset=".939341" stop-color="#f5fb59"/>
      <stop offset="1" stop-color="#f5fb59"/>
    </linearGradient>
    <linearGradient id="blade-right" gradientUnits="userSpaceOnUse"
      x1="687.7676" y1="565.4837" x2="822.0307" y2="625.2615">
      <stop offset="0" stop-color="#f5fb59"/>
      <stop offset=".380542" stop-color="#47d95d"/>
      <stop offset="1" stop-color="#23d6d2"/>
    </linearGradient>
    <linearGradient id="blade-top" gradientUnits="userSpaceOnUse"
      x1="692.1787" y1="814.1335" x2="588.0712" y2="640.8695">
      <stop offset="0" stop-color="#23d6d2"/>
      <stop offset=".556324" stop-color="#47d95d"/>
      <stop offset="1" stop-color="#f5fb59"/>
    </linearGradient>
    <radialGradient id="center-glow" gradientUnits="userSpaceOnUse"
      cx="655" cy="617" r="34">
      <stop offset="0" stop-color="#fffde8" stop-opacity=".9"/>
      <stop offset=".28" stop-color="#f5fb59" stop-opacity=".55"/>
      <stop offset="1" stop-color="#f5fb59" stop-opacity="0"/>
    </radialGradient>
  </defs>
  <g transform="translate(-448.957 834.985) scale(1 -1)">
    <path fill="url(#blade-left)" d="
      M500.613 631.825
      C472.731 611.622 448.957 566.211 478.014 535.543
      C508.051 503.842 574.141 509.362 608.514 527.162
      C643.347 545.2 659.29 578.709 666.192 601.781
      C667.725 606.906 668.647 611.823 669.091 616.51
      C667.16 615.976 630.675 606.398 600.795 636.109
      C599.342 637.553 597.853 639.094 596.346 640.723
      C586.266 640.583 576.899 641.924 567.819 643.264
      C559.175 644.539 550.789 645.815 542.298 645.815
      C529.116 645.815 515.679 642.742 500.613 631.825 Z"/>
    <path fill="url(#blade-right)" d="
      M687.642 672.367
      C676.005 669.46 666.82 664.446 659.616 658.719
      C659.611 658.715 659.607 658.711 659.603 658.708
      C652.134 631.962 664.356 619.78 667.785 616.982
      C668.045 616.8 668.306 616.615 668.568 616.424
      C674.211 612.313 680.193 606.385 686.192 597.908
      C708.152 566.873 704.199 532.847 746.299 514.637
      C777.902 500.969 829.087 503.697 840.633 544.336
      C852.569 586.344 814.095 640.365 781.247 660.842
      C761.874 672.919 741.259 676.82 722.805 676.82
      C709.549 676.82 697.409 674.808 687.642 672.367 Z"/>
    <image href="moonwort-mark-shadow.png" x="516.753" y="534.838"
      width="264" height="340" opacity=".55"/>
    <path fill="url(#blade-top)" d="
      M631.703 833.231
      C589.524 821.916 562.905 761.171 562.188 722.469
      C561.523 686.586 579.776 658.443 595.907 640.85
      C597.408 639.215 598.89 637.667 600.336 636.216
      C630.083 606.373 666.611 615.789 668.544 616.313
      C668.546 616.338 668.55 616.363 668.552 616.389
      C668.428 616.474 668.155 616.67 667.773 616.982
      C664.344 619.78 652.122 631.962 659.591 658.708
      C659.593 658.716 659.594 658.724 659.597 658.732
      C660.669 662.568 662.145 666.701 664.111 671.151
      C679.478 705.926 711.583 722.031 705.606 767.509
      C701.608 797.918 678.47 834.984 644.624 834.984
      C640.473 834.985 636.161 834.427 631.703 833.231 Z"/>
    <circle cx="655" cy="617" r="34" fill="url(#center-glow)"/>
  </g>
</svg>
